<svg width="32" height="32" viewBox="0 0 32 32" fill="none" xmlns="http://www.w3.org/2000/svg">
<path d="M12.666 2.66703C13.5123 2.6669 14.327 2.98868 14.9447 3.56709C15.5625 4.1455 15.9372 4.93723 15.9927 5.7817L15.9993 6.00037V12.1404L23.2553 12.947C24.5134 13.0868 25.6806 13.6695 26.5485 14.5909C27.4164 15.5123 27.9283 16.7123 27.9927 17.9764L27.9993 18.247V18.667C27.9993 21.4383 26.9208 24.1007 24.9921 26.0906C23.0633 28.0806 20.4359 29.2418 17.666 29.3284L17.3327 29.3337H16.434C14.5173 29.3337 12.636 28.8172 10.988 27.8385C9.33996 26.8599 7.98606 25.4553 7.06868 23.7724L6.89402 23.4377L3.10468 15.859C2.62468 14.899 2.98068 13.615 4.10068 13.155C5.49135 12.5857 6.81268 12.479 8.17402 13.171C8.47002 13.3221 8.76068 13.5061 9.04602 13.723L9.33268 13.9497V6.00037C9.33268 5.11631 9.68387 4.26847 10.309 3.64334C10.9341 3.01822 11.782 2.66703 12.666 2.66703ZM12.666 5.3337C12.51 5.33365 12.3589 5.38833 12.239 5.48822C12.1191 5.58811 12.0381 5.72688 12.01 5.88037L11.9993 6.00037V17.3337C11.9991 17.6097 11.9132 17.8789 11.7535 18.1041C11.5938 18.3292 11.3682 18.4992 11.1077 18.5907C10.8473 18.6821 10.5649 18.6905 10.2995 18.6146C10.0341 18.5387 9.79876 18.3823 9.62602 18.167L9.18335 17.6244L8.77935 17.1524C8.00602 16.2764 7.44468 15.7924 6.96602 15.5484C6.68293 15.3959 6.36047 15.3322 6.04068 15.3657L5.85268 15.3924L9.27935 22.2457C9.91925 23.525 10.8905 24.6094 12.0918 25.3858C13.2932 26.1623 14.6808 26.6024 16.11 26.6604L16.434 26.667H17.3327C19.4025 26.6671 21.3918 25.8649 22.8826 24.4291C24.3735 22.9932 25.2497 21.0354 25.3274 18.967L25.3327 18.667V18.247C25.3328 17.6274 25.1171 17.0271 24.7227 16.5493C24.3282 16.0714 23.7797 15.7458 23.1713 15.6284L22.9607 15.5964L15.7047 14.791C15.0886 14.7226 14.5157 14.4418 14.0842 13.9967C13.6528 13.5517 13.3899 12.9702 13.3407 12.3524L13.3327 12.1404V6.00037C13.3327 5.82356 13.2624 5.65399 13.1374 5.52896C13.0124 5.40394 12.8428 5.3337 12.666 5.3337ZM5.33268 8.00037C5.6863 8.00037 6.02544 8.14084 6.27549 8.39089C6.52554 8.64094 6.66602 8.98008 6.66602 9.3337C6.66602 9.68732 6.52554 10.0265 6.27549 10.2765C6.02544 10.5266 5.6863 10.667 5.33268 10.667H3.99935C3.64573 10.667 3.30659 10.5266 3.05654 10.2765C2.80649 10.0265 2.66602 9.68732 2.66602 9.3337C2.66602 8.98008 2.80649 8.64094 3.05654 8.39089C3.30659 8.14084 3.64573 8.00037 3.99935 8.00037H5.33268ZM21.3327 6.66703C21.6725 6.66741 21.9994 6.79754 22.2465 7.03083C22.4936 7.26412 22.6423 7.58297 22.6622 7.92223C22.6822 8.26148 22.5718 8.59554 22.3537 8.85614C22.1355 9.11675 21.8261 9.28423 21.4887 9.32437L21.3327 9.3337H19.9993C19.6595 9.33332 19.3326 9.20319 19.0855 8.9699C18.8384 8.73661 18.6897 8.41776 18.6698 8.07851C18.6499 7.73925 18.7602 7.40519 18.9784 7.14459C19.1965 6.88399 19.5059 6.7165 19.8433 6.67637L19.9993 6.66703H21.3327ZM6.27535 1.72437L7.60868 3.0577C7.85156 3.30917 7.98595 3.64597 7.98291 3.99557C7.97988 4.34516 7.83965 4.67958 7.59244 4.92679C7.34523 5.174 7.01081 5.31423 6.66122 5.31727C6.31162 5.3203 5.97482 5.18591 5.72335 4.94303L4.39002 3.6097C4.14714 3.35823 4.01275 3.02143 4.01578 2.67183C4.01882 2.32224 4.15905 1.98782 4.40626 1.74061C4.65347 1.4934 4.98788 1.35317 5.33748 1.35013C5.68708 1.3471 6.02388 1.48149 6.27535 1.72437ZM20.942 1.72437C21.192 1.9744 21.3324 2.31348 21.3324 2.66703C21.3324 3.02059 21.192 3.35966 20.942 3.6097L19.6087 4.94303C19.4857 5.07038 19.3386 5.17196 19.1759 5.24183C19.0132 5.31171 18.8383 5.3485 18.6612 5.35003C18.4842 5.35157 18.3086 5.31784 18.1447 5.2508C17.9809 5.18375 17.832 5.08475 17.7068 4.95956C17.5816 4.83437 17.4826 4.6855 17.4156 4.52164C17.3485 4.35778 17.3148 4.1822 17.3163 4.00516C17.3179 3.82813 17.3547 3.65317 17.4245 3.49049C17.4944 3.32782 17.596 3.1807 17.7233 3.0577L19.0567 1.72437C19.3067 1.4744 19.6458 1.33398 19.9993 1.33398C20.3529 1.33398 20.692 1.4744 20.942 1.72437Z" fill="#00823C"/>
</svg>
