<svg width="32" height="32" viewBox="0 0 32 32" fill="none" xmlns="http://www.w3.org/2000/svg">
<path d="M22.0006 4.27452C23.3484 5.05237 24.3817 6.27724 24.9213 7.73689C25.4609 9.19653 25.4729 10.799 24.9552 12.2665C26.0483 13.2032 26.8089 14.4683 27.1236 15.8729C27.4383 17.2776 27.29 18.7463 26.701 20.0598C26.1121 21.3732 25.1139 22.4608 23.8558 23.1602C22.5976 23.8595 21.147 24.133 19.7206 23.9399C19.7792 24.4332 19.7872 24.9452 19.7472 25.4425C19.6472 26.6225 19.2459 27.9719 18.2766 28.9412C18.0366 29.1803 17.7146 29.3192 17.376 29.3295C17.0374 29.3398 16.7076 29.2209 16.4535 28.9969C16.1994 28.7728 16.0401 28.4605 16.008 28.1232C15.9759 27.786 16.0733 27.4492 16.2806 27.1812L16.3912 27.0559C16.7552 26.6919 17.0206 26.0425 17.0886 25.2212C17.101 25.0719 17.1063 24.9261 17.1046 24.7839C15.9443 25.5807 14.5615 25.9898 13.1544 25.9527C11.7473 25.9155 10.3881 25.4339 9.27151 24.5769C8.1549 23.7199 7.33819 22.5315 6.93839 21.1819C6.53859 19.8323 6.57622 18.3908 7.04589 17.0639C5.86515 16.051 5.0756 14.6573 4.81385 13.1239C4.5521 11.5905 4.83463 10.0138 5.61254 8.66661C6.39045 7.31947 7.6148 6.28663 9.07376 5.74681C10.5327 5.20699 12.1345 5.19416 13.6019 5.71052C14.614 4.52802 16.008 3.73694 17.5422 3.47442C19.0765 3.2119 20.6542 3.49449 22.0019 4.27319L22.0006 4.27452ZM15.3312 7.83986L15.2032 8.04786C15.0264 8.35409 14.7352 8.57754 14.3936 8.66906C14.0521 8.76057 13.6881 8.71266 13.3819 8.53586C12.9268 8.26907 12.4234 8.09493 11.9008 8.02346C11.3781 7.952 10.8465 7.98463 10.3365 8.11946C9.82651 8.2543 9.34822 8.48868 8.92917 8.80911C8.51013 9.12955 8.1586 9.5297 7.89484 9.98655C7.63107 10.4434 7.46027 10.9479 7.39228 11.471C7.32428 11.9941 7.36043 12.5255 7.49865 13.0346C7.63686 13.5437 7.87441 14.0204 8.19762 14.4374C8.52083 14.8543 8.92331 15.2031 9.38189 15.4639C9.68812 15.6407 9.91157 15.9319 10.0031 16.2735C10.0946 16.615 10.0467 16.979 9.86989 17.2852C9.34782 18.2034 9.21014 19.2909 9.48689 20.3102C9.76365 21.3296 10.4324 22.1981 11.3471 22.7263C12.2619 23.2544 13.3484 23.3993 14.3696 23.1293C15.3907 22.8594 16.2637 22.1964 16.7979 21.2852C16.9747 20.979 17.2659 20.7555 17.6075 20.664C17.9491 20.5725 18.313 20.6204 18.6192 20.7972C19.5198 21.3193 20.5884 21.4698 21.5982 21.2167C22.6079 20.9636 23.4792 20.3268 24.027 19.4416C24.5748 18.5564 24.7559 17.4926 24.5319 16.476C24.3078 15.4594 23.6963 14.5702 22.8272 13.9972L22.6192 13.8692C22.313 13.6924 22.0895 13.4012 21.998 13.0596C21.9065 12.718 21.9544 12.3541 22.1312 12.0479C22.6534 11.1473 22.8039 10.0787 22.5508 9.06891C22.2976 8.05917 21.6609 7.18788 20.7757 6.64009C19.8905 6.09231 18.8266 5.9112 17.81 6.13522C16.7934 6.35924 15.9042 6.97075 15.3312 7.83986ZM16.0006 12.6665C16.2632 12.6665 16.5233 12.7183 16.7659 12.8188C17.0086 12.9193 17.2291 13.0666 17.4148 13.2523C17.6005 13.438 17.7478 13.6585 17.8483 13.9012C17.9488 14.1438 18.0006 14.4039 18.0006 14.6665C18.0006 14.9292 17.9488 15.1892 17.8483 15.4319C17.7478 15.6745 17.6005 15.895 17.4148 16.0807C17.2291 16.2665 17.0086 16.4138 16.7659 16.5143C16.5233 16.6148 16.2632 16.6665 16.0006 16.6665C15.4701 16.6665 14.9614 16.4558 14.5863 16.0807C14.2113 15.7057 14.0006 15.197 14.0006 14.6665C14.0006 14.1361 14.2113 13.6274 14.5863 13.2523C14.9614 12.8772 15.4701 12.6665 16.0006 12.6665Z" fill="#00823C"/>
</svg>
