<svg width="20" height="20" viewBox="0 0 20 20" fill="none" xmlns="http://www.w3.org/2000/svg">
<path d="M13.7503 2.67109C14.5928 3.15725 15.2386 3.92279 15.5758 4.83507C15.9131 5.74734 15.9206 6.74887 15.597 7.66609C16.2802 8.25149 16.7556 9.0422 16.9523 9.9201C17.1489 10.798 17.0563 11.716 16.6882 12.5369C16.32 13.3578 15.6962 14.0375 14.9099 14.4746C14.1235 14.9117 13.2169 15.0827 12.3253 14.9619C12.362 15.2703 12.367 15.5903 12.342 15.9011C12.2795 16.6386 12.0287 17.4819 11.4228 18.0878C11.2729 18.2372 11.0717 18.324 10.86 18.3304C10.6484 18.3369 10.4423 18.2626 10.2834 18.1225C10.1246 17.9825 10.0251 17.7873 10.005 17.5765C9.98494 17.3658 10.0458 17.1552 10.1753 16.9878L10.2445 16.9094C10.472 16.6819 10.6378 16.2761 10.6803 15.7628C10.6881 15.6694 10.6915 15.5783 10.6903 15.4894C9.96516 15.9874 9.10094 16.2432 8.22151 16.2199C7.34209 16.1967 6.49258 15.8957 5.7947 15.3601C5.09681 14.8245 4.58637 14.0817 4.3365 13.2382C4.08662 12.3947 4.11014 11.4937 4.40368 10.6644C3.66572 10.0314 3.17225 9.16035 3.00866 8.20195C2.84506 7.24355 3.02164 6.25811 3.50784 5.41614C3.99403 4.57418 4.75925 3.92866 5.6711 3.59127C6.58295 3.25388 7.58405 3.24586 8.50118 3.56859C9.13377 2.82953 10.005 2.3351 10.9639 2.17103C11.9228 2.00695 12.9089 2.18357 13.7512 2.67026L13.7503 2.67109ZM9.58202 4.89942L9.50202 5.02942C9.39151 5.22082 9.20949 5.36047 8.99601 5.41767C8.78254 5.47487 8.55508 5.44492 8.36368 5.33442C8.07926 5.16768 7.76465 5.05884 7.43799 5.01418C7.11133 4.96951 6.77906 4.9899 6.46032 5.07418C6.14157 5.15845 5.84264 5.30494 5.58073 5.50521C5.31883 5.70548 5.09913 5.95558 4.93427 6.2411C4.76942 6.52663 4.66267 6.84195 4.62017 7.16889C4.57768 7.49584 4.60027 7.82797 4.68666 8.14615C4.77304 8.46434 4.92151 8.76229 5.12351 9.02286C5.32552 9.28343 5.57707 9.50147 5.86368 9.66442C6.05508 9.77493 6.19473 9.95695 6.25193 10.1704C6.30913 10.3839 6.27918 10.6114 6.16868 10.8028C5.84239 11.3767 5.75634 12.0563 5.92931 12.6934C6.10228 13.3305 6.52023 13.8734 7.09195 14.2034C7.66366 14.5335 8.34274 14.6241 8.98098 14.4553C9.61922 14.2866 10.1648 13.8723 10.4987 13.3028C10.6092 13.1114 10.7912 12.9717 11.0047 12.9145C11.2182 12.8573 11.4456 12.8873 11.637 12.9978C12.1999 13.3241 12.8678 13.4182 13.4989 13.26C14.1299 13.1018 14.6745 12.7038 15.0169 12.1505C15.3592 11.5973 15.4724 10.9324 15.3324 10.297C15.1924 9.66162 14.8102 9.10586 14.267 8.74776L14.137 8.66776C13.9456 8.55725 13.806 8.37523 13.7488 8.16176C13.6916 7.94828 13.7215 7.72082 13.832 7.52942C14.1584 6.96657 14.2524 6.29867 14.0942 5.66758C13.936 5.03649 13.538 4.49194 12.9848 4.14957C12.4315 3.80721 11.7666 3.69401 11.1312 3.83402C10.4959 3.97404 9.94012 4.35623 9.58202 4.89942ZM10.0003 7.91609C10.1645 7.91609 10.327 7.94842 10.4787 8.01124C10.6304 8.07406 10.7682 8.16613 10.8842 8.28221C11.0003 8.39828 11.0924 8.53608 11.1552 8.68774C11.218 8.83939 11.2503 9.00194 11.2503 9.16609C11.2503 9.33024 11.218 9.49279 11.1552 9.64444C11.0924 9.7961 11.0003 9.9339 10.8842 10.05C10.7682 10.166 10.6304 10.2581 10.4787 10.3209C10.327 10.3838 10.1645 10.4161 10.0003 10.4161C9.66883 10.4161 9.35089 10.2844 9.11646 10.05C8.88204 9.81555 8.75035 9.49761 8.75035 9.16609C8.75035 8.83457 8.88204 8.51663 9.11646 8.28221C9.35089 8.04779 9.66883 7.91609 10.0003 7.91609Z" fill="white"/>
</svg>
