<svg width="32" height="32" viewBox="0 0 32 32" fill="none" xmlns="http://www.w3.org/2000/svg">
<path d="M15.9993 2.66602C23.3633 2.66602 29.3327 8.63535 29.3327 15.9993C29.3327 23.3633 23.3633 29.3327 15.9993 29.3327C8.63535 29.3327 2.66602 23.3633 2.66602 15.9993C2.66602 8.63535 8.63535 2.66602 15.9993 2.66602ZM15.9993 5.33268C13.1704 5.33268 10.4573 6.45649 8.45688 8.45688C6.45649 10.4573 5.33268 13.1704 5.33268 15.9993C5.33268 18.8283 6.45649 21.5414 8.45688 23.5418C10.4573 25.5422 13.1704 26.666 15.9993 26.666C18.8283 26.666 21.5414 25.5422 23.5418 23.5418C25.5422 21.5414 26.666 18.8283 26.666 15.9993C26.666 13.1704 25.5422 10.4573 23.5418 8.45688C21.5414 6.45649 18.8283 5.33268 15.9993 5.33268ZM15.9993 7.99935C16.3259 7.99939 16.6411 8.11929 16.8852 8.3363C17.1292 8.55331 17.2851 8.85235 17.3233 9.17668L17.3327 9.33268V15.4473L20.942 19.0567C21.1811 19.2966 21.32 19.6186 21.3303 19.9572C21.3407 20.2958 21.2217 20.6256 20.9977 20.8797C20.7736 21.1338 20.4613 21.2931 20.124 21.3252C19.7868 21.3573 19.45 21.2599 19.182 21.0527L19.0567 20.942L15.0567 16.942C14.8495 16.7346 14.7164 16.4647 14.678 16.174L14.666 15.9993V9.33268C14.666 8.97906 14.8065 8.63992 15.0565 8.38987C15.3066 8.13982 15.6457 7.99935 15.9993 7.99935Z" fill="#00823C"/>
</svg>
